<svg width="214" height="214" viewBox="0 0 214 214" fill="none" xmlns="http://www.w3.org/2000/svg">
<path d="M97.4694 2.80003C88.6694 4.53336 88.6694 5.33336 97.7361 7.20002C102.269 8.26669 102.269 9.86669 98.0027 14.9334C94.0027 19.7334 93.8694 20.5334 97.3361 24C100.669 27.3334 107.069 27.4667 117.469 24.5334C127.336 21.7334 130.936 22.6667 137.603 30C144.003 36.9334 150.669 39.4667 155.869 36.9334C159.869 35.0667 161.203 29.3334 158.403 26.5334C151.469 19.2 149.336 15.6 150.803 13.8667C151.603 12.8 153.603 12 155.203 12C157.603 11.8667 157.469 11.6 154.136 9.86669C151.203 8.13336 150.136 8.13336 149.336 9.33336C148.669 10.4 146.803 10.8 144.669 10.4C141.469 9.73336 141.203 10 141.869 12.8C142.936 16.6667 139.603 18.6667 132.269 18.6667C128.669 18.6667 124.669 17.2 118.669 13.4667C109.336 7.86669 107.603 5.60002 111.869 4.40002C113.469 4.00002 114.669 3.20003 114.669 2.53336C114.669 1.06669 105.469 1.20003 97.4694 2.80003ZM113.869 13.3334C118.003 14.8 118.536 19.4667 115.069 22.1334C111.869 24.5334 102.136 24.5334 100.003 22C97.8694 19.4667 99.3361 15.3334 103.069 13.6C106.803 11.7334 109.736 11.7334 113.869 13.3334ZM151.603 22.5334C159.069 27.2 158.536 34.6667 150.669 34.6667C146.136 34.6667 138.669 28.8 138.669 25.3334C138.669 22.6667 142.003 20.1334 145.336 20C146.403 20 149.203 21.2 151.603 22.5334Z" fill="#E9019F"/>
<path d="M131.466 4.66675C132 5.73341 132.8 6.66675 133.466 6.66675C134.133 6.66675 134.666 5.73341 134.666 4.66675C134.666 3.60008 133.733 2.66675 132.666 2.66675C131.466 2.66675 131.066 3.46675 131.466 4.66675Z" fill="#E9019F"/>
<path d="M75.3346 11.2002C70.9346 13.7335 64.9346 17.8669 62.0013 20.5335L56.668 25.2002L64.8013 22.5335C70.8013 20.5335 74.5346 18.2669 79.3346 13.3335C82.9346 9.6002 85.3346 6.66686 84.668 6.66686C83.868 6.66686 79.7346 8.8002 75.3346 11.2002Z" fill="#E9019F"/>
<path d="M173.602 25.3335C175.335 28.2668 175.469 29.3335 173.869 32.1335C172.669 34.5335 172.535 36.8002 173.335 39.4668L174.402 43.3335L174.535 39.6002C174.669 34.2668 178.402 33.4668 182.269 37.8668C184.002 40.0002 185.869 41.3335 186.269 40.9335C187.202 40.0002 178.669 28.2668 174.535 24.6668L171.469 22.0002L173.602 25.3335Z" fill="#E9019F"/>
<path d="M52.4029 29.6001C49.6029 33.3334 49.2029 34.6667 51.0696 34.6667C52.1362 34.6667 53.3362 33.3334 53.7362 31.7334C54.6696 28.1334 54.1362 27.3334 52.4029 29.6001Z" fill="#E9019F"/>
<path d="M63.4668 35.3335C59.4668 37.7335 57.4668 38.1335 55.7335 37.2002C53.7335 36.1335 53.0668 36.5335 51.8668 39.6002C51.0668 41.6002 49.4668 44.4002 48.2668 45.7335C46.1335 48.1335 46.2668 48.1335 49.8668 46.5335C53.4668 44.8002 53.8668 44.9335 57.6002 49.7335C62.9335 56.4002 66.9335 56.2669 73.6002 49.3335C77.3335 45.3335 78.6668 42.8002 78.6668 39.6002C78.6668 31.4669 72.8002 29.8669 63.4668 35.3335ZM74.6668 37.3335C76.6668 41.2002 72.9335 48.8002 68.1335 50.4002C59.8668 53.3335 57.0668 45.4669 63.8668 38.5335C68.4002 34.0002 72.6668 33.6002 74.6668 37.3335Z" fill="#E9019F"/>
<path d="M100.802 38.8C96.0016 40.1334 92.6683 43.2 90.6683 48.1334C88.535 52.9334 90.6683 58.8 95.6016 62.1334C99.0683 64.2667 99.6016 64.2667 115.068 61.8667C125.468 60.1334 134.668 67.8667 134.668 78.2667C134.668 83.3334 134.002 84.8 130.535 87.8667C118.802 97.7334 117.335 99.6 117.335 104.933C117.335 108.933 118.268 111.067 121.202 113.867C124.802 117.333 125.735 117.6 132.268 116.933C136.135 116.4 141.335 115.733 143.735 115.2C147.335 114.533 148.802 114.933 151.602 117.467C153.468 119.2 155.468 122 156.135 123.6C157.735 127.867 163.468 128.933 167.735 125.733C174.535 120.667 176.535 116.667 176.668 107.067C176.802 96.8 179.335 90.9334 184.535 88.1334C188.402 86 191.335 87.6 193.335 92.6667C194.135 94.5334 194.535 93.0667 194.535 87.6C194.668 81.7334 195.068 80 196.668 80C197.735 80 198.668 79.3334 198.668 78.5334C198.668 77.7334 197.602 77.3334 196.402 77.7334C195.068 78 193.068 78.5334 192.002 78.8C190.802 79.2 189.068 77.3334 187.335 73.8667C183.602 66.2667 181.468 64 178.002 64C172.268 64 170.135 69.6 171.202 82.2667C172.135 95.0667 170.535 100.667 164.668 104.533C157.202 109.467 148.935 106.933 144.535 98.4C140.802 91.0667 142.402 85.4667 150.802 76.6667C157.335 69.7334 158.668 66 156.668 60C155.068 55.2 148.135 49.3334 144.002 49.3334C142.668 49.3334 139.468 50.2667 136.935 51.3334C128.668 54.8 125.735 54 117.868 46.4C110.135 38.8 106.668 37.2 100.802 38.8ZM112.402 45.6C119.602 54.2667 104.668 65.0667 96.2683 57.3334C92.135 53.3334 92.535 48.9334 97.6016 44.6667C102.535 40.5334 108.535 40.8 112.402 45.6ZM150.402 56C154.802 60.1334 155.468 64.9334 152.402 69.0667C148.668 74.1334 142.402 74.5334 138.002 70.1334C129.068 61.2 141.202 47.4667 150.402 56ZM181.735 69.0667C187.335 75.2 186.935 84.2667 180.935 86.1334C174.402 88.2667 170.002 75.2 175.468 69.2C178.268 66.1334 179.068 66 181.735 69.0667ZM137.868 97.4667C144.268 102.533 141.202 112.4 132.668 114.133C123.068 116 117.202 103.467 124.802 97.4667C126.802 95.8667 129.735 94.6667 131.335 94.6667C132.935 94.6667 135.868 95.8667 137.868 97.4667ZM173.202 109.067C176.802 115.867 167.602 127.333 161.335 124C157.202 121.867 157.868 115.333 162.535 110.533C167.068 106.133 171.335 105.6 173.202 109.067Z" fill="#E9019F"/>
<path d="M186.533 45.8668C185.867 51.2002 183.6 51.6002 179.467 47.0668C177.6 45.0668 176 44.1335 176 45.0668C176 47.4668 182.133 53.3335 184.533 53.3335C187.6 53.3335 189.6 48.8002 188.133 45.0668C186.933 42.1335 186.933 42.1335 186.533 45.8668Z" fill="#E9019F"/>
<path d="M42 50.6669C42.5333 51.4669 43.4667 51.7336 44.1333 51.3336C46 50.1336 45.6 49.3336 43.2 49.3336C42.1333 49.3336 41.6 50.0002 42 50.6669Z" fill="#E9019F"/>
<path d="M104.001 76.6667C86.0013 89.0667 83.868 89.8667 70.668 89.8667L59.468 90L58.5346 94C58.0013 96.1333 56.9346 101.867 56.0013 106.667C54.1346 116.933 50.1346 124.4 42.9346 130.933C37.2013 136.133 24.9346 141.333 18.668 141.333C14.668 141.333 14.668 141.467 14.668 148.667C14.668 152.667 14.9346 156 15.2013 156C15.468 156 18.268 155.067 21.3346 154C37.3346 148.4 53.068 129.6 58.668 109.333C60.9346 101.067 62.1346 100 68.668 100C76.9346 100 88.1346 95.3333 96.1346 88.5333C99.868 85.2 105.735 81.0667 109.201 79.0667C115.601 75.3333 120.268 70.8 119.201 69.0667C118.001 67.3333 117.068 67.7333 104.001 76.6667Z" fill="#E9019F"/>
<path d="M195.6 95.6C195.067 96 194.667 98.2667 194.667 100.4C194.667 102.667 193.734 105.467 192.534 106.8C190.534 109.067 190.934 112 193.2 112C194.267 112 196.4 105.6 198 98.2667C198.667 94.9333 197.6 93.6 195.6 95.6Z" fill="#E9019F"/>
<path d="M94.1359 101.6C92.9359 103.2 92.0026 105.334 92.0026 106.267C92.0026 107.2 91.4693 109.067 90.6693 110.4C88.4026 114.534 85.3359 131.734 85.3359 140.267C85.3359 161.067 100.269 164.934 107.736 146.134C112.536 134.267 110.003 128.4 102.936 134.934L99.7359 138L96.5359 134.267C92.6693 129.734 92.2693 122 95.3359 108.534C97.7359 98.8002 97.3359 96.9335 94.1359 101.6Z" fill="#E9019F"/>
<path d="M182.669 124.267C182.669 125.2 182.269 127.333 181.869 128.933C180.803 132.8 182.803 132.933 185.069 129.333C186.403 127.067 186.403 126.267 184.669 124.533C183.203 122.933 182.669 122.933 182.669 124.267Z" fill="#E9019F"/>
<path d="M72.0025 138.134C72.0025 141.2 67.0692 147.734 59.3359 154.934C54.2692 159.734 53.0692 161.467 54.2692 162.667C55.3359 163.867 56.6692 163.734 59.6025 162C64.5359 159.067 68.6692 152.934 72.0025 143.867C75.0692 135.467 75.0692 136 73.3359 136C72.6692 136 72.0025 136.934 72.0025 138.134Z" fill="#E9019F"/>
<path d="M153.6 141.867C147.866 146.8 147.066 150.134 150.666 154L153.6 157.067L150.666 159.6C149.2 160.934 145.466 165.2 142.533 168.934C139.6 172.8 136.4 176 135.2 176C131.466 176 131.466 171.6 135.066 165.067C137.066 161.6 138.666 158.134 138.666 157.467C138.666 156.8 136 154.8 132.8 152.934L126.8 149.6L123.466 154.667C119.866 160.267 120 160.667 126.4 163.334C131.066 165.334 131.866 168.667 129.333 175.467C128.4 178 128.4 179.467 129.466 180.8C132.266 184.267 135.333 182.667 141.733 174.667C145.6 170 151.6 164.534 156.4 161.734C166.133 155.734 173.333 149.067 173.333 146.134C173.333 143.467 168.133 140.134 162.4 139.2C158.8 138.534 157.066 139.067 153.6 141.867Z" fill="#3A3A3A"/>
<path d="M76.9361 172.133C73.4695 174.4 69.3361 178.133 67.7361 180.267C64.9361 184.4 64.9361 184.4 67.4695 189.2C70.6695 195.333 74.9361 196.133 78.1361 191.333C80.5361 187.733 79.7361 185.867 75.4695 185.067C74.1361 184.933 72.2695 183.6 71.4695 182.4C68.0028 176.8 84.8028 169.867 88.6695 175.2C90.4028 177.467 90.0028 182.133 87.6028 184.933C86.8028 186.133 86.8028 186.667 87.8695 186.667C90.0028 186.667 94.6695 178.667 94.6695 175.067C94.6695 169.467 93.2028 168 88.1361 168C84.8028 168 81.0695 169.333 76.9361 172.133Z" fill="#E9019F"/>
<path d="M110.534 171.6C108.667 173.733 105.467 177.733 103.334 180.667C94.4003 193.2 86.1336 199.867 74.1336 204.133C66.5336 206.8 65.2003 208.533 69.3336 210.667C71.467 211.867 73.867 211.867 79.067 210.533C91.6003 207.6 93.067 206.133 107.734 183.6C110.934 178.667 115.734 176.267 118.534 178C120.8 179.333 120.267 184.267 117.334 188.667C115.867 190.8 114.667 193.067 114.667 193.467C114.667 195.067 125.6 200.133 127.467 199.467C129.734 198.533 133.6 190.933 132.667 189.333C132.267 188.533 131.067 188 130.134 188C129.2 188 127.334 186.8 126 185.333C124.134 183.333 123.867 181.467 124.4 176.667C125.2 171.733 124.934 170.533 122.667 169.333C118.4 167.067 114 167.867 110.534 171.6Z" fill="#3A3A3A"/>
</svg>
